<svg width="350" height="350" viewBox="0 0 350 350" fill="none" xmlns="http://www.w3.org/2000/svg">
<rect width="350" height="350" rx="20" fill="#F20505"/>
<path d="M169.97 21C193.963 21 216.026 23.5174 236.16 28.5523C256.293 33.5871 274.414 36.8598 290.521 38.3702C281.628 61.7823 281.293 87.0195 289.514 114.082C280.957 119.494 271.142 122.641 260.069 123.522C258.726 121.131 256.293 116.159 252.77 108.606C249.414 100.928 246.143 94.6347 242.955 89.7257C239.935 84.8167 235.656 79.2155 230.12 72.9219C224.751 66.6283 217.536 61.6564 208.476 58.0062C199.583 54.23 189.349 51.6496 177.772 50.2651C160.826 51.3979 147.739 55.2999 138.511 61.9711C129.283 68.6423 124.669 77.2644 124.669 87.8376C124.669 98.6626 128.36 107.599 135.742 114.648C143.125 121.571 152.688 126.795 164.433 130.319C176.346 133.718 189.433 136.739 203.694 139.382C217.955 141.899 232.133 145.046 246.227 148.822C260.32 152.473 273.239 157.319 284.984 163.36C296.897 169.276 306.544 178.15 313.926 189.982C321.309 201.814 325 216.226 325 233.219C325 253.862 317.03 271.61 301.091 286.462C285.152 301.315 266.36 311.951 244.717 318.371C223.073 324.79 200.926 328 178.275 328C128.444 328 79.1162 319.755 30.2918 303.266C31.2985 287.029 31.8018 277.085 31.8018 273.435C31.8018 253.044 29.2012 231.142 24 207.73C39.1003 202.318 55.9624 202.066 74.5861 206.975C80.794 235.548 92.7904 257.449 110.575 272.68C128.528 287.91 148.158 296.406 169.467 298.168C189.433 297.162 204.785 292.315 215.523 283.63C226.428 274.819 231.881 263.68 231.881 250.212C231.881 238.883 228.358 229.317 221.311 221.513C214.264 213.583 204.952 207.478 193.375 203.199C181.799 198.793 169.215 194.828 155.625 191.304C142.202 187.779 128.612 184.066 114.854 180.164C101.096 176.136 88.4281 171.353 76.8512 165.815C65.442 160.277 56.214 152.535 49.1672 142.592C42.1204 132.648 38.597 120.564 38.597 106.341C38.597 93.5018 41.2815 81.9846 46.6505 71.7891C52.1873 61.5935 59.318 53.4118 68.0426 47.2442C76.9351 41.0765 87.2536 35.9157 98.9983 31.762C110.911 27.6082 122.656 24.7761 134.232 23.2657C145.977 21.7552 157.89 21 169.97 21ZM169.97 28.7411C155.876 28.7411 142.202 29.9998 128.947 32.5172C115.693 34.9088 102.773 38.8737 90.1898 44.4121C77.774 49.9504 67.791 58.0691 60.2408 68.7681C52.6906 79.4672 48.9156 91.9914 48.9156 106.341C48.9156 119.054 52.439 130.005 59.4858 139.193C66.5326 148.256 75.7606 155.305 87.1697 160.339C98.7467 165.374 111.414 169.843 125.172 173.745C138.93 177.521 152.521 181.36 165.943 185.262C179.533 189.164 192.117 193.569 203.694 198.478C215.271 203.387 224.583 210.247 231.63 219.058C238.676 227.744 242.2 238.128 242.2 250.212C242.2 266.952 235.069 280.484 220.808 290.805C206.546 301.126 186.329 306.287 160.155 306.287C134.987 306.287 111.582 298.42 89.9381 282.686C68.2943 266.952 54.0329 243.415 47.1538 212.073C43.7982 210.436 39.8554 210.436 35.3253 212.073C39.8554 231.834 42.1204 252.288 42.1204 273.435C42.1204 279.351 41.7848 287.721 41.1137 298.546C82.7235 313.021 122.404 320.259 160.155 320.259C191.362 320.259 220.22 313.336 246.73 299.49C273.239 285.518 286.494 266.008 286.494 240.96C286.494 226.737 282.803 214.716 275.421 204.898C268.038 194.954 258.391 187.213 246.478 181.675C234.566 176.136 221.479 171.353 207.217 167.325C192.956 163.297 178.778 159.521 164.685 155.997C150.591 152.347 137.588 148.319 125.676 143.913C113.931 139.508 104.367 133.277 96.9849 125.221C89.6026 117.04 85.9114 107.159 85.9114 95.5787C85.9114 79.3413 93.2099 66.3766 107.807 56.6845C122.404 46.9924 143.125 42.1464 169.97 42.1464C216.613 42.1464 248.743 66.3766 266.36 114.837C271.562 115.466 275.169 114.585 277.182 112.194C271.646 81.4811 259.481 59.8942 240.69 47.433C222.066 34.9717 198.493 28.7411 169.97 28.7411Z" fill="white"/>
</svg>
